<mxfile host="app.diagrams.net" agent="Mozilla/5.0 (Windows NT 10.0; Win64; x64) AppleWebKit/537.36 (KHTML, like Gecko) Chrome/128.0.0.0 Safari/537.36 OPR/114.0.0.0" version="24.7.12">
  <diagram id="C5RBs43oDa-KdzZeNtuy" name="Page-1">
    <mxGraphModel dx="4840" dy="1913" grid="1" gridSize="10" guides="1" tooltips="1" connect="1" arrows="1" fold="1" page="1" pageScale="1" pageWidth="1400" pageHeight="1600" math="0" shadow="0">
      <root>
        <mxCell id="WIyWlLk6GJQsqaUBKTNV-0" />
        <mxCell id="WIyWlLk6GJQsqaUBKTNV-1" parent="WIyWlLk6GJQsqaUBKTNV-0" />
        <mxCell id="SnbYtqvOmOJBrR4244Wj-4" value="" style="edgeStyle=orthogonalEdgeStyle;rounded=0;orthogonalLoop=1;jettySize=auto;html=1;" edge="1" parent="WIyWlLk6GJQsqaUBKTNV-1" source="SnbYtqvOmOJBrR4244Wj-0" target="SnbYtqvOmOJBrR4244Wj-2">
          <mxGeometry relative="1" as="geometry" />
        </mxCell>
        <mxCell id="SnbYtqvOmOJBrR4244Wj-0" value="Start" style="ellipse;whiteSpace=wrap;html=1;" vertex="1" parent="WIyWlLk6GJQsqaUBKTNV-1">
          <mxGeometry x="590" y="50" width="150" height="80" as="geometry" />
        </mxCell>
        <mxCell id="SnbYtqvOmOJBrR4244Wj-6" value="" style="edgeStyle=orthogonalEdgeStyle;rounded=0;orthogonalLoop=1;jettySize=auto;html=1;" edge="1" parent="WIyWlLk6GJQsqaUBKTNV-1" source="SnbYtqvOmOJBrR4244Wj-2" target="SnbYtqvOmOJBrR4244Wj-5">
          <mxGeometry relative="1" as="geometry" />
        </mxCell>
        <mxCell id="SnbYtqvOmOJBrR4244Wj-2" value="welcome page&lt;div&gt;&lt;br&gt;&lt;/div&gt;" style="rounded=0;whiteSpace=wrap;html=1;" vertex="1" parent="WIyWlLk6GJQsqaUBKTNV-1">
          <mxGeometry x="605" y="170" width="120" height="60" as="geometry" />
        </mxCell>
        <mxCell id="SnbYtqvOmOJBrR4244Wj-9" value="" style="edgeStyle=orthogonalEdgeStyle;rounded=0;orthogonalLoop=1;jettySize=auto;html=1;" edge="1" parent="WIyWlLk6GJQsqaUBKTNV-1" source="SnbYtqvOmOJBrR4244Wj-5" target="SnbYtqvOmOJBrR4244Wj-15">
          <mxGeometry relative="1" as="geometry">
            <mxPoint x="867.5" y="410" as="targetPoint" />
            <Array as="points">
              <mxPoint x="806" y="350" />
              <mxPoint x="806" y="410" />
            </Array>
          </mxGeometry>
        </mxCell>
        <mxCell id="SnbYtqvOmOJBrR4244Wj-10" value="Borrow" style="edgeLabel;html=1;align=center;verticalAlign=middle;resizable=0;points=[];" vertex="1" connectable="0" parent="SnbYtqvOmOJBrR4244Wj-9">
          <mxGeometry x="-0.3022" y="-1" relative="1" as="geometry">
            <mxPoint as="offset" />
          </mxGeometry>
        </mxCell>
        <mxCell id="SnbYtqvOmOJBrR4244Wj-5" value="are you going to borrow&lt;div&gt;&amp;nbsp;or return?&lt;/div&gt;" style="rhombus;whiteSpace=wrap;html=1;" vertex="1" parent="WIyWlLk6GJQsqaUBKTNV-1">
          <mxGeometry x="587.5" y="280" width="155" height="140" as="geometry" />
        </mxCell>
        <mxCell id="SnbYtqvOmOJBrR4244Wj-13" value="" style="edgeStyle=orthogonalEdgeStyle;rounded=0;orthogonalLoop=1;jettySize=auto;html=1;entryX=0.5;entryY=0;entryDx=0;entryDy=0;exitX=0.423;exitY=1.001;exitDx=0;exitDy=0;exitPerimeter=0;" edge="1" parent="WIyWlLk6GJQsqaUBKTNV-1" source="SnbYtqvOmOJBrR4244Wj-15" target="SnbYtqvOmOJBrR4244Wj-14">
          <mxGeometry relative="1" as="geometry">
            <mxPoint x="927.5" y="439.9999999999999" as="sourcePoint" />
            <mxPoint x="927.5" y="500" as="targetPoint" />
          </mxGeometry>
        </mxCell>
        <mxCell id="SnbYtqvOmOJBrR4244Wj-17" value="" style="edgeStyle=orthogonalEdgeStyle;rounded=0;orthogonalLoop=1;jettySize=auto;html=1;" edge="1" parent="WIyWlLk6GJQsqaUBKTNV-1" source="SnbYtqvOmOJBrR4244Wj-14" target="SnbYtqvOmOJBrR4244Wj-16">
          <mxGeometry relative="1" as="geometry" />
        </mxCell>
        <mxCell id="SnbYtqvOmOJBrR4244Wj-14" value="&lt;div&gt;whats your name?&lt;/div&gt;&lt;div&gt;&lt;br&gt;&lt;/div&gt;how many books are&amp;nbsp;&lt;div&gt;you going to borrow?&lt;/div&gt;" style="shape=parallelogram;perimeter=parallelogramPerimeter;whiteSpace=wrap;html=1;fixedSize=1;" vertex="1" parent="WIyWlLk6GJQsqaUBKTNV-1">
          <mxGeometry x="846.25" y="490" width="162.5" height="90" as="geometry" />
        </mxCell>
        <mxCell id="SnbYtqvOmOJBrR4244Wj-15" value="show the available/unavailable&amp;nbsp;&lt;div&gt;books&lt;/div&gt;" style="shape=parallelogram;perimeter=parallelogramPerimeter;whiteSpace=wrap;html=1;fixedSize=1;" vertex="1" parent="WIyWlLk6GJQsqaUBKTNV-1">
          <mxGeometry x="867.5" y="380" width="142.5" height="60" as="geometry" />
        </mxCell>
        <mxCell id="SnbYtqvOmOJBrR4244Wj-21" value="" style="edgeStyle=orthogonalEdgeStyle;rounded=0;orthogonalLoop=1;jettySize=auto;html=1;" edge="1" parent="WIyWlLk6GJQsqaUBKTNV-1" source="SnbYtqvOmOJBrR4244Wj-16" target="SnbYtqvOmOJBrR4244Wj-20">
          <mxGeometry relative="1" as="geometry" />
        </mxCell>
        <mxCell id="SnbYtqvOmOJBrR4244Wj-23" value="there r books&lt;div&gt;to loop through&lt;/div&gt;" style="edgeLabel;html=1;align=center;verticalAlign=middle;resizable=0;points=[];" vertex="1" connectable="0" parent="SnbYtqvOmOJBrR4244Wj-21">
          <mxGeometry x="-0.2209" y="-1" relative="1" as="geometry">
            <mxPoint as="offset" />
          </mxGeometry>
        </mxCell>
        <mxCell id="SnbYtqvOmOJBrR4244Wj-25" value="" style="edgeStyle=orthogonalEdgeStyle;rounded=0;orthogonalLoop=1;jettySize=auto;html=1;" edge="1" parent="WIyWlLk6GJQsqaUBKTNV-1" source="SnbYtqvOmOJBrR4244Wj-16" target="SnbYtqvOmOJBrR4244Wj-24">
          <mxGeometry relative="1" as="geometry" />
        </mxCell>
        <mxCell id="SnbYtqvOmOJBrR4244Wj-26" value="there r no books&lt;div&gt;to loop through&lt;/div&gt;" style="edgeLabel;html=1;align=center;verticalAlign=middle;resizable=0;points=[];" vertex="1" connectable="0" parent="SnbYtqvOmOJBrR4244Wj-25">
          <mxGeometry x="-0.1136" y="-1" relative="1" as="geometry">
            <mxPoint as="offset" />
          </mxGeometry>
        </mxCell>
        <mxCell id="SnbYtqvOmOJBrR4244Wj-16" value="loop through&lt;div&gt;n books&lt;/div&gt;" style="rhombus;whiteSpace=wrap;html=1;" vertex="1" parent="WIyWlLk6GJQsqaUBKTNV-1">
          <mxGeometry x="871.25" y="660" width="112.5" height="110" as="geometry" />
        </mxCell>
        <mxCell id="SnbYtqvOmOJBrR4244Wj-22" style="edgeStyle=orthogonalEdgeStyle;rounded=0;orthogonalLoop=1;jettySize=auto;html=1;exitX=0.5;exitY=0;exitDx=0;exitDy=0;" edge="1" parent="WIyWlLk6GJQsqaUBKTNV-1" source="SnbYtqvOmOJBrR4244Wj-20">
          <mxGeometry relative="1" as="geometry">
            <mxPoint x="930" y="620" as="targetPoint" />
            <Array as="points">
              <mxPoint x="1205" y="620" />
            </Array>
          </mxGeometry>
        </mxCell>
        <mxCell id="SnbYtqvOmOJBrR4244Wj-20" value="title of the books&lt;div&gt;you&#39;re going to&amp;nbsp;&lt;/div&gt;&lt;div&gt;borrow&lt;/div&gt;" style="shape=parallelogram;perimeter=parallelogramPerimeter;whiteSpace=wrap;html=1;fixedSize=1;" vertex="1" parent="WIyWlLk6GJQsqaUBKTNV-1">
          <mxGeometry x="1140" y="685" width="130" height="60" as="geometry" />
        </mxCell>
        <mxCell id="SnbYtqvOmOJBrR4244Wj-28" value="" style="edgeStyle=orthogonalEdgeStyle;rounded=0;orthogonalLoop=1;jettySize=auto;html=1;" edge="1" parent="WIyWlLk6GJQsqaUBKTNV-1" source="SnbYtqvOmOJBrR4244Wj-24" target="SnbYtqvOmOJBrR4244Wj-27">
          <mxGeometry relative="1" as="geometry" />
        </mxCell>
        <mxCell id="SnbYtqvOmOJBrR4244Wj-24" value="update the book inventory object and mark all the named books unavailable" style="whiteSpace=wrap;html=1;" vertex="1" parent="WIyWlLk6GJQsqaUBKTNV-1">
          <mxGeometry x="867.5" y="875" width="120" height="60" as="geometry" />
        </mxCell>
        <mxCell id="SnbYtqvOmOJBrR4244Wj-27" value="print the book infos,&amp;nbsp;&lt;div&gt;borrower&#39;s name,&lt;/div&gt;&lt;div&gt;due date(2 weeks)&lt;/div&gt;" style="shape=parallelogram;perimeter=parallelogramPerimeter;whiteSpace=wrap;html=1;fixedSize=1;" vertex="1" parent="WIyWlLk6GJQsqaUBKTNV-1">
          <mxGeometry x="851.25" y="980" width="152.5" height="90" as="geometry" />
        </mxCell>
      </root>
    </mxGraphModel>
  </diagram>
</mxfile>
